<?xml version="1.0" encoding="UTF-8" standalone="no"?>
<!-- Created with Inkscape (http://www.inkscape.org/) -->

<svg
   xmlns:dc="http://purl.org/dc/elements/1.1/"
   xmlns:cc="http://creativecommons.org/ns#"
   xmlns:rdf="http://www.w3.org/1999/02/22-rdf-syntax-ns#"
   xmlns:svg="http://www.w3.org/2000/svg"
   xmlns="http://www.w3.org/2000/svg"
   xmlns:xlink="http://www.w3.org/1999/xlink"
   xmlns:sodipodi="http://sodipodi.sourceforge.net/DTD/sodipodi-0.dtd"
   xmlns:inkscape="http://www.inkscape.org/namespaces/inkscape"
   id="svg2"
   version="1.1"
   inkscape:version="0.48.4 r9939"
   width="512"
   height="512"
   sodipodi:docname="akiniai.svg">
  <metadata
     id="metadata8">
    <rdf:RDF>
      <cc:Work
         rdf:about="">
        <dc:format>image/svg+xml</dc:format>
        <dc:type
           rdf:resource="http://purl.org/dc/dcmitype/StillImage" />
      </cc:Work>
    </rdf:RDF>
  </metadata>
  <defs
     id="defs6">
    <linearGradient
       inkscape:collect="always"
       id="linearGradient3883">
      <stop
         style="stop-color:#0096ff;stop-opacity:1;"
         offset="0"
         id="stop3885" />
      <stop
         style="stop-color:#0096ff;stop-opacity:0;"
         offset="1"
         id="stop3887" />
    </linearGradient>
    <filter
       inkscape:collect="always"
       id="filter3813"
       color-interpolation-filters="sRGB">
      <feGaussianBlur
         inkscape:collect="always"
         stdDeviation="26.972571"
         id="feGaussianBlur3815" />
    </filter>
    <linearGradient
       inkscape:collect="always"
       xlink:href="#linearGradient3883"
       id="linearGradient4073"
       gradientUnits="userSpaceOnUse"
       gradientTransform="matrix(1.2485246,0,0,1.2485246,-763.14469,-413.04391)"
       x1="4602.2036"
       y1="3056.6428"
       x2="4283.4805"
       y2="1453.8439" />
    <linearGradient
       inkscape:collect="always"
       xlink:href="#linearGradient3883"
       id="linearGradient4075"
       gradientUnits="userSpaceOnUse"
       gradientTransform="matrix(1.2485246,0,0,1.2485246,-763.14469,-413.04391)"
       x1="3180.0879"
       y1="3557.4346"
       x2="1950.0447"
       y2="1361.3435" />
  </defs>
  <sodipodi:namedview
     pagecolor="#ffffff"
     bordercolor="#666666"
     borderopacity="1"
     objecttolerance="10"
     gridtolerance="10"
     guidetolerance="10"
     inkscape:pageopacity="0"
     inkscape:pageshadow="2"
     inkscape:window-width="1440"
     inkscape:window-height="845"
     id="namedview4"
     showgrid="false"
     inkscape:snap-bbox="true"
     inkscape:bbox-paths="true"
     inkscape:bbox-nodes="true"
     inkscape:snap-bbox-edge-midpoints="true"
     inkscape:snap-bbox-midpoints="true"
     inkscape:object-paths="true"
     inkscape:snap-intersection-paths="true"
     inkscape:snap-smooth-nodes="true"
     inkscape:object-nodes="true"
     inkscape:snap-midpoints="true"
     inkscape:snap-center="true"
     inkscape:snap-object-midpoints="true"
     inkscape:zoom="0.25"
     inkscape:cx="129.90619"
     inkscape:cy="418.1928"
     inkscape:window-x="-3"
     inkscape:window-y="-3"
     inkscape:window-maximized="1"
     inkscape:current-layer="g4050"
     showguides="true"
     inkscape:guide-bbox="true"
     fit-margin-top="0"
     fit-margin-left="0"
     fit-margin-right="0"
     fit-margin-bottom="0"
     inkscape:snap-page="true" />
  <g
     id="g3912"
     transform="matrix(0.09190292,0,0,0.09190292,-51.544492,67.770037)">
    <g
       id="g4050"
       transform="matrix(1.1041379,0,0,1.1041379,-348.48773,-264.55917)">
      <path
         transform="matrix(1.2485246,0,0,1.2485246,-763.14469,-413.04391)"
         inkscape:connector-curvature="0"
         style="fill:#1a1a1a;fill-opacity:0.35416667;stroke:none;filter:url(#filter3813)"
         d="m 2961.6562,1822.4375 115.0626,38.3437 c 764.9299,48.0999 1277.3313,454.8846 1845.1562,813.9376 -103.0395,-43.9212 -211.1891,-77.6218 -330.25,-89.5 l -556.9062,82.9374 c -243.5467,52.3096 -27.2509,216.9407 57.25,352.5313 -75.7057,39.617 -121.771,25.8025 -135.5938,24.125 -90.8608,-109.584 -198.4977,-174.4286 -313.375,-219.9687 -113.351,-42.4517 -223.1196,-67.0264 -328.4375,-69.3126 L 2292.625,2828.125 c -149.8924,8.6124 -227.174,77.7281 -281.25,166.1875 L 1465.9062,2312.5 c -71.241,-122.2527 -43.8705,-202.2595 -4.25,-277 38.8029,-69.4341 36.1885,-93.581 -46.875,-29.8125 -63.9091,54.2823 -106.3831,126.9448 -58.8124,276.7813 l 625.5624,814.125 c 40.3411,114.5832 162.754,160.7959 298.3126,196.0312 479.5256,34.0741 847.9716,-9.6761 1248.5624,-34.0938 168.433,-16.2262 320.9776,-48.3635 417.625,-136.375 94.1332,0.8341 184.9539,7.1107 247.1563,-31.9687 50.5881,45.0057 272.35,27.841 315.0625,25.5937 337.4686,-5.8865 739.1875,-96.1253 739.1875,-192.5937 -11.066,-100.5161 -171.4277,-199.4685 -295.7187,-274.0313 C 4084.3785,1994.7533 3517.3751,1898.1151 2961.6562,1822.4375 z M 4551.5,2655.2812 c 170.4861,-1.1405 482.2747,87.4007 586.7188,191.6876 116.2775,126.2391 -528.4361,237.8389 -744.0938,213.5 -145.1481,0 -219.4531,-41.3699 -255.625,-100.4688 l -95.9688,-156.8438 c -76.0313,-122.2654 371.3803,-141.1877 484.875,-147.0312 7.6597,-0.4986 15.7092,-0.7877 24.0938,-0.8438 z m -1318.75,170.2813 c 23.1557,-0.083 43.729,0.2475 60.9375,1.0937 275.7155,13.5607 464.2396,86.2473 548.2187,225.1876 115.6005,144.6194 -1069.8005,209.795 -1292.9374,182.625 -244.9981,-4.4889 -385.0491,-57.5109 -415.5938,-126.4376 -24.1087,-54.4031 -2.1429,-99.6033 12.0625,-146.3437 21.9229,-72.1335 246.3347,-92.7936 445.7187,-102.5313 94.042,-4.5926 453.04,-32.9193 641.5938,-33.5937 z"
         id="path3801" />
      <path
         style="fill:#000000"
         d="m 905.15734,1286.6273 c -78.53208,-0.1989 -56.05077,78.7312 -35.54399,130.5098 l 76.67426,193.5992 c 12.28099,31.0088 78.12739,175.1106 89.96749,210.8424 5.5281,16.6835 4.6852,59.0772 21.6464,72.8128 27.5604,22.3189 58.6851,-17.3967 13.7778,-131.5302 L 971.17307,1507.421 c -26.61666,-67.6474 -63.01191,-118.7358 67.73253,-56.4177 l 526.6822,263.3216 c 143.1767,74.8415 150.8695,152.4592 153.8026,277.5628 l 16.5429,624.184 c 8.4898,320.479 321.4123,537.1194 594.922,578.6523 144.8467,21.9952 437.8527,-8.3124 653.6806,-41.3185 378.2194,-57.8391 731.9238,-571.9051 847.124,-1164.5222 18.1984,-72.4918 -29.1418,-218.4816 109.7141,-197.4229 125.991,-15.0484 143.0752,-17.4895 124.1502,80.881 -172.054,249.6571 -97.5799,548.719 69.6052,869.051 l 3.3555,-2.536 c 45.9196,121.9422 124.1623,197.3009 230.9379,219.5453 87.7895,18.2889 301.2875,-18.9114 432.1066,-46.3125 254.7172,-93.114 312.193,-284.6236 393.7534,-472.8007 86.1413,-198.746 209.5393,-525.2876 257.0011,-742.2088 22.7292,-103.6241 41.581,-160.3582 -168.7851,-183.26 -519.5176,-44.2637 -1028.7087,-81.6279 -1526.9455,-111.7038 -134.43,12.7145 -227.2002,32.0842 -275.6839,66.8185 -89.7563,-25.6665 -181.1215,-30.9992 -277.2174,-26.7879 0,0 -100.5151,2.4917 -240.3019,6.5939 -440.7865,-20.2028 -865.7088,11.7009 -1284.8489,62.6213 -269.566,-24.6912 -350.8175,-83.003 -650.8715,-195.8233 -57.27178,-20.3818 -96.29554,-28.8451 -122.47236,-28.9111 z m 2858.49706,205.6554 c 133.161,-0.083 289.9602,25.5493 476.7803,54.6229 -63.2477,34.0315 -98.6777,79.4279 -285.9121,65.8596 -169.2466,6.0678 -236.4587,-62.6893 -336.7116,-107.217 45.2467,-9.2437 93.7366,-13.2335 145.8434,-13.2655 z m -556.5298,33.32 c 287.3698,0.4067 583.1311,132.669 510.4514,500.3462 -104.85,530.4213 -407.9595,980.4095 -752.1971,1032.1787 -196.4368,29.5416 -463.1282,56.6743 -594.9609,36.9876 -248.9359,-37.1743 -533.7426,-231.0986 -541.4695,-517.9428 l -15.0604,-558.6367 c -7.727,-286.8439 197.9718,-445.3251 503.8577,-462.4613 285.9322,-16.0182 847.085,-29.5744 847.085,-29.5743 14.0474,-0.6057 28.1606,-0.9174 42.2938,-0.8974 z m 1805.0544,76.355 c 167.8982,-0.7372 357.6586,47.8546 257.6251,415.1734 -116.2989,427.0452 -273.5047,778.0956 -477.3655,820.8659 -116.3316,24.4067 -306.1999,57.4661 -384.2725,41.2013 -147.4223,-30.7122 -233.683,-175.2748 -246.1545,-411.9741 l -19.5471,-371.0848 c -12.4715,-236.6993 117.2096,-453.0249 298.3584,-467.1824 169.3318,-13.2339 501.6337,-24.4632 501.6337,-24.4632 22.1841,-1.334 45.7369,-2.4307 69.7224,-2.5361 z"
         id="path2992"
         inkscape:connector-curvature="0"
         sodipodi:nodetypes="sssssssccccsscccccscsccccccccsscccsssssccscsssssccscs" />
      <path
         style="fill:#000000"
         d="m 3377.8874,1526.8121 -382.1573,271.6641 c -67.2305,47.0937 -120.6252,78.9277 -13.301,77.1461 43.1953,19.7157 76.5115,15.7471 98.4277,-21.2816 l 399.0313,-316.565 z"
         id="path3776"
         inkscape:connector-curvature="0"
         sodipodi:nodetypes="cccccc" />
      <path
         sodipodi:nodetypes="ssssssss"
         inkscape:connector-curvature="0"
         id="path2990"
         d="m 4440.8275,1628.9513 c 169.3318,-13.2341 501.6469,-24.4528 501.6469,-24.4528 177.4737,-10.6713 441.665,-7.1579 327.3411,412.635 -116.299,427.0451 -273.5098,778.0862 -477.3706,820.8565 -116.3316,24.4068 -306.1983,57.4715 -384.2709,41.2068 -147.4223,-30.7122 -233.6998,-175.2575 -246.1713,-411.9567 l -19.5527,-371.093 c -12.4716,-236.6992 117.2288,-453.0383 298.3775,-467.1958 z"
         style="fill:url(#linearGradient4073);fill-opacity:1;fill-rule:evenodd" />
      <path
         inkscape:connector-curvature="0"
         style="fill:#ffffff;fill-opacity:1;fill-rule:evenodd"
         d="m 5251.2324,2083.4591 c -126.3541,391.4525 -293.787,705.1248 -507.7204,745.0961 -102.4355,19.1393 -256.4334,43.6824 -358.4045,44.7517 7.5126,2.2824 15.1961,4.2535 23.0586,5.8914 78.0726,16.2648 267.9409,-16.7946 384.2725,-41.2013 193.2012,-40.5338 344.5063,-357.9569 458.7938,-754.5379 z"
         id="path3794" />
      <path
         style="fill:#000000"
         d="m 3728.8127,1766.9971 c -24.7405,173.0637 -71.6456,274.3017 -152.1639,418.1032 -63.0149,203.8498 -132.2635,413.9335 -209.4612,631.9662 234.477,-280.0996 387.3947,-619.8274 361.6251,-1050.0694 z"
         id="path3780"
         inkscape:connector-curvature="0"
         sodipodi:nodetypes="cccc" />
      <path
         style="fill:url(#linearGradient4075);fill-opacity:1;fill-rule:evenodd"
         d="m 2317.7368,1556.0799 c 285.9321,-16.0184 847.0764,-29.5975 847.0764,-29.5975 299.6806,-12.9166 628.9995,113.6926 552.7453,499.4522 -104.85,530.4213 -407.9421,980.4324 -752.1796,1032.2015 -196.4367,29.5419 -463.1396,56.6838 -594.9725,36.9969 -248.9358,-37.1739 -533.7318,-231.1065 -541.4589,-517.9507 l -15.0483,-558.647 c -7.727,-286.8441 197.9517,-445.3192 503.8376,-462.4554 z"
         id="rect2987"
         inkscape:connector-curvature="0"
         sodipodi:nodetypes="ssssssss" />
      <path
         inkscape:connector-curvature="0"
         style="fill:#ffffff;fill-opacity:1;fill-rule:evenodd"
         d="m 3671.5366,2212.6813 c -134.6037,430.3559 -412.4762,772.5712 -723.1298,816.496 -200.8036,28.3927 -473.4238,54.4653 -608.1875,35.544 -100.5146,-14.1124 -206.7434,-51.7463 -298.9827,-109.0898 98.0027,74.3381 217.2129,122.7632 329.1814,139.4837 131.8327,19.6868 398.5242,-7.4459 594.9609,-36.9876 302.9669,-45.5625 574.03,-399.607 706.1577,-845.4463 z"
         id="path3785" />
      <path
         style="fill:#4d4d4d"
         d="m 905.15734,1286.6273 c -36.31246,-0.092 -47.91713,15.9762 -49.31672,38.7432 5.04641,-0.989 10.81709,-1.4993 17.40119,-1.4826 26.17706,0.067 65.2007,8.5293 122.47248,28.9112 300.05391,112.8201 381.30551,171.132 650.87151,195.8232 868.726,-123.1477 1074.657,-81.8236 1738.9699,-78.335 -169.8939,-33.1054 -277.8042,-25.7674 -422.2056,-21.5469 -440.7866,-20.2028 -865.7088,11.7007 -1284.8489,62.6213 -269.566,-24.6912 -350.8175,-83.003 -650.8715,-195.8233 -57.27178,-20.3818 -96.29567,-28.8452 -122.47236,-28.9111 z"
         id="path3848"
         inkscape:connector-curvature="0"
         sodipodi:nodetypes="cccccccccc" />
      <path
         inkscape:connector-curvature="0"
         style="fill:#333333"
         d="m 3498.0697,1458.2994 c 56.9564,-3.862 156.7377,-32.319 214.2744,-37.5976 217.6971,17.0794 1571.1548,93.1179 1571.1547,93.1179 0,0 -1028.7084,-81.6279 -1526.9455,-111.7038 -119.975,11.3473 -206.7394,28.0404 -258.4836,56.1835 z"
         id="path3841" />
      <path
         style="fill:#999999"
         d="m 3920.3089,1652.2893 c 185.2517,30.375 214.6839,-46.4594 277.9315,-80.4909 -105.2592,48.5617 -160.2776,38.6713 -246.016,43.2303 0,0 -155.865,16.9371 -31.9155,37.2606 z"
         id="path3837"
         inkscape:connector-curvature="0"
         sodipodi:nodetypes="sccs" />
      <path
         inkscape:connector-curvature="0"
         style="fill:#333333"
         d="m 3846.8374,1834.0271 c -60.0099,28.6718 -32.5061,134.0113 -47.0929,192.1168 -65.0574,334.6705 -206.173,644.2738 -384.8188,860.8188 193.6947,-217.4399 347.848,-543.7128 416.7342,-898.0794 10.6738,-42.518 -1.1967,-110.3049 15.1775,-154.8562 z"
         id="path3819" />
      <path
         style="fill:#ffffff;fill-opacity:1;stroke:none"
         d="m 1809.2999,1529.7741 c 0,0 -79.9664,45.5993 -124.3242,47.9986 -62.2835,3.3691 -180.8171,-48.1719 -180.8171,-48.1719 l 180.8171,14.3781 z"
         id="path3822"
         inkscape:connector-curvature="0"
         sodipodi:nodetypes="csccc" />
      <path
         style="fill:#ffffff;fill-opacity:1;stroke:none"
         d="m 3085.6708,2992.1827 c -75.5327,65.0621 -124.5365,81.4771 -227.7647,49.941 0,0 50.9868,-66.2038 113.8823,-66.2038 62.8953,0 113.8824,16.2628 113.8824,16.2628 z"
         id="path3825"
         inkscape:connector-curvature="0"
         sodipodi:nodetypes="ccsc" />
      <path
         style="fill:#ffffff;fill-opacity:1;stroke:none"
         d="m 4925.1602,2761.3303 c 0,0 -57.3494,51.1552 -97.2905,51.1552 -39.9412,0 -47.3496,38.2178 -47.3496,23.7563 0,-14.4615 32.3788,-76.1259 72.3201,-76.1259 39.9411,0 72.32,1.2144 72.32,1.2144 z"
         id="path3827"
         inkscape:connector-curvature="0"
         sodipodi:nodetypes="csscc" />
      <path
         style="fill:#ffffff;fill-opacity:0.78431373;stroke:none"
         d="m 4759.9314,1636.5266 c 1.9086,22.3904 4.9735,93.9955 9.0521,114.7111 143.3181,-2.7572 187.2847,118.8855 199.381,172.2204 54.6057,-8.8987 91.6547,-37.1443 91.6546,-37.1443 0,0 11.5685,-141.5925 15.1779,-249.3581 -109.041,-18.112 -217.8411,-4.5497 -315.2656,-0.4291 z"
         id="rect3872"
         inkscape:connector-curvature="0"
         sodipodi:nodetypes="cccccc" />
      <path
         sodipodi:nodetypes="ccc"
         inkscape:connector-curvature="0"
         id="path3881"
         d="m 5241.364,1789.9421 c -129.2485,128.8847 -131.3404,164.5713 -120.9434,-114.2819 60.0841,-9.7672 122.4466,56.6637 120.9434,114.2819 z"
         style="fill:#ffffff;fill-opacity:0.78431373;stroke:none" />
    </g>
  </g>
</svg>
